<?xml version="1.0" standalone="no"?>
<!DOCTYPE svg PUBLIC "-//W3C//DTD SVG 20010904//EN"
 "http://www.w3.org/TR/2001/REC-SVG-20010904/DTD/svg10.dtd">
<svg version="1.0" xmlns="http://www.w3.org/2000/svg"
 width="700.000000pt" height="700.000000pt" viewBox="0 0 700.000000 700.000000"
 preserveAspectRatio="xMidYMid meet">
<metadata>
Created by potrace 1.14, written by Peter Selinger 2001-2017
</metadata>
<g transform="translate(0.000000,700.000000) scale(0.100000,-0.100000)"
fill="#000000" stroke="none">
<path d="M3175 6992 c-11 -2 -26 -9 -34 -16 -12 -8 -13 -8 -7 2 5 9 -7 12 -50
12 -52 0 -55 -1 -43 -17 13 -17 12 -17 -6 -3 -17 13 -35 17 -55 11 -3 -1 -52
-4 -110 -6 -57 -2 -129 -7 -160 -11 -30 -4 -69 -7 -87 -7 -19 0 -30 -4 -26
-10 4 -6 1 -7 -8 -1 -13 8 -42 7 -114 -2 -16 -2 -59 -7 -95 -10 -36 -3 -67 -9
-70 -13 -3 -4 -20 -6 -39 -5 -19 0 -52 -2 -75 -7 -49 -8 -136 -21 -153 -22 -7
0 -13 -3 -13 -6 0 -3 -17 -6 -37 -5 -24 1 -43 -5 -51 -15 -8 -9 -11 -10 -7 -3
4 8 -1 12 -14 12 -12 0 -21 -3 -21 -7 0 -5 -12 -8 -27 -9 -75 -3 -89 -9 -84
-37 1 -5 -3 -6 -9 -2 -6 3 -8 11 -5 16 9 14 -16 11 -48 -6 -15 -8 -25 -10 -22
-5 3 4 -21 2 -52 -6 -32 -7 -89 -21 -128 -30 -38 -9 -74 -20 -80 -24 -11 -9
-15 -10 -46 -10 -11 0 -18 -4 -15 -8 3 -4 -5 -8 -17 -8 -32 1 -117 -25 -112
-34 2 -4 -7 -6 -21 -4 -15 1 -28 -4 -31 -12 -3 -8 -9 -12 -13 -9 -12 7 -133
-35 -142 -49 -4 -6 -8 -8 -8 -3 0 4 -15 0 -33 -10 -17 -9 -36 -16 -40 -15 -4
1 -10 -5 -13 -13 -3 -8 -10 -13 -15 -10 -4 3 -41 -12 -81 -34 -54 -30 -72 -45
-70 -58 2 -14 1 -15 -7 -4 -7 12 -13 11 -34 -5 -14 -10 -35 -26 -47 -34 -47
-31 -99 -84 -93 -94 3 -6 3 -8 -1 -4 -5 4 -19 -4 -33 -16 -22 -20 -24 -27 -13
-47 10 -21 10 -22 -3 -7 -13 17 -15 17 -32 -1 -10 -12 -14 -25 -9 -33 4 -7 4
-10 -1 -6 -4 4 -16 -4 -27 -17 -32 -41 -98 -177 -91 -188 3 -5 2 -7 -4 -4 -6
4 -18 -13 -28 -36 -9 -23 -26 -62 -36 -87 -11 -25 -21 -55 -24 -66 -2 -12 -8
-30 -14 -40 -16 -30 -28 -77 -26 -101 1 -12 -2 -20 -6 -17 -5 2 -13 -15 -18
-38 -6 -24 -15 -55 -20 -70 -7 -20 -6 -28 2 -28 7 0 6 -4 -3 -10 -8 -5 -15
-15 -15 -22 -1 -7 -7 -33 -14 -57 -7 -24 -10 -52 -8 -62 3 -11 2 -17 -2 -15
-4 3 -12 -17 -17 -45 -7 -33 -7 -49 0 -49 5 0 1 -7 -10 -15 -14 -11 -15 -14
-4 -15 13 0 13 -1 0 -10 -8 -5 -12 -10 -8 -10 4 0 3 -11 -2 -25 -7 -18 -6 -25
3 -25 9 0 9 -2 -1 -8 -7 -5 -14 -26 -16 -48 -3 -21 -7 -50 -11 -64 -3 -14 -8
-41 -10 -60 -10 -79 -12 -96 -19 -118 -5 -14 -3 -29 6 -39 9 -12 9 -15 1 -9
-7 4 -13 4 -14 -1 0 -4 -2 -24 -4 -43 -2 -19 -6 -53 -9 -75 -10 -72 -20 -189
-20 -242 -1 -29 -4 -53 -7 -53 -11 0 -10 -92 2 -106 6 -8 9 -17 5 -21 -3 -3
-6 -1 -6 5 0 7 -4 12 -8 12 -4 0 -8 -28 -8 -62 -1 -35 -3 -78 -7 -96 -3 -18
-1 -30 4 -26 5 3 9 0 9 -5 0 -6 -4 -11 -8 -11 -4 0 -9 -39 -10 -87 -2 -49 -4
-125 -6 -170 -2 -56 1 -83 8 -83 8 0 8 -3 0 -8 -14 -9 -14 -359 0 -381 6 -10
6 -12 -2 -7 -7 4 -12 1 -12 -8 0 -8 6 -17 13 -19 6 -3 7 -6 1 -6 -15 -1 -7
-220 9 -240 9 -12 9 -13 -1 -7 -9 5 -12 -3 -12 -31 0 -28 3 -34 10 -23 5 8 10
11 10 5 0 -5 -4 -17 -9 -24 -6 -9 -6 -22 0 -33 7 -12 6 -18 -1 -18 -6 0 -8 -5
-5 -11 4 -6 9 -52 11 -102 2 -51 6 -114 9 -142 3 -27 7 -81 10 -120 4 -61 8
-100 21 -190 1 -11 3 -33 3 -48 1 -20 5 -26 14 -21 7 5 7 1 -2 -10 -9 -10 -11
-20 -5 -24 5 -4 10 -27 10 -52 1 -25 5 -63 8 -85 11 -66 19 -119 19 -132 0 -7
3 -13 6 -13 3 0 7 -17 7 -38 1 -33 10 -87 14 -87 1 0 3 -13 6 -30 6 -48 13
-90 14 -90 2 0 4 -9 14 -60 17 -86 26 -123 37 -150 7 -16 11 -38 10 -48 -1
-10 6 -25 16 -34 10 -8 12 -12 6 -8 -18 9 -17 4 22 -125 20 -63 38 -124 40
-135 3 -11 9 -21 14 -23 6 -2 7 -10 4 -19 -5 -12 -3 -14 7 -8 8 5 11 4 7 -2
-9 -14 13 -74 24 -67 5 3 6 -2 3 -10 -8 -21 111 -276 129 -276 4 0 5 -4 2 -10
-3 -5 -1 -10 4 -10 6 0 11 -5 11 -11 0 -27 118 -171 133 -162 6 3 7 1 4 -4 -4
-6 9 -24 29 -39 20 -16 43 -37 52 -46 9 -10 22 -18 29 -18 7 0 13 -3 13 -7 0
-10 62 -47 73 -45 4 1 7 -3 7 -9 0 -6 7 -8 16 -5 8 3 13 2 10 -2 -7 -11 192
-104 205 -97 5 4 9 2 9 -4 0 -10 90 -47 130 -52 14 -2 27 -6 30 -9 3 -3 41
-16 85 -29 44 -13 91 -27 105 -32 14 -5 36 -12 50 -15 14 -3 36 -8 50 -11 14
-3 34 -6 45 -7 11 0 22 -4 25 -8 3 -3 25 -9 50 -12 25 -2 45 -5 45 -6 0 -2
111 -26 160 -33 6 -1 9 4 7 11 -1 8 2 11 8 7 6 -3 7 -11 4 -17 -5 -7 2 -9 19
-6 15 3 28 2 29 -2 2 -4 23 -10 48 -14 25 -3 63 -8 85 -11 22 -3 58 -8 80 -10
22 -2 40 -4 40 -5 0 -3 33 -8 99 -14 38 -3 71 -8 74 -11 3 -2 14 0 25 6 14 8
18 8 13 0 -7 -11 8 -13 127 -15 26 0 47 -3 47 -7 0 -3 7 -6 15 -6 8 0 15 5 15
11 0 7 3 7 8 -1 4 -7 53 -14 127 -18 65 -4 131 -9 145 -10 14 -2 31 2 39 9 12
8 13 8 7 -1 -5 -10 7 -13 51 -14 32 0 81 -1 110 -2 28 -1 49 1 47 5 -2 4 0 10
6 13 6 4 10 3 9 -2 -4 -20 2 -24 18 -12 9 8 14 9 10 3 -4 -8 2 -11 18 -10 18
1 24 5 20 16 -4 12 -2 12 8 -1 11 -14 45 -16 287 -15 173 0 278 4 282 11 5 6
8 5 8 -3 0 -7 4 -11 8 -8 4 2 50 6 101 7 51 2 95 7 97 11 3 5 11 5 17 1 10 -6
57 -5 127 2 14 2 49 3 78 4 40 1 51 4 46 14 -6 9 -4 9 7 1 8 -6 23 -10 34 -8
11 2 56 6 100 10 96 8 120 11 120 13 0 1 31 4 69 7 38 2 75 9 82 15 8 7 14 7
18 0 5 -7 15 -7 32 -1 14 6 31 7 37 3 6 -4 8 0 4 10 -5 14 -3 15 14 4 16 -10
21 -9 29 3 6 10 10 11 10 3 0 -7 5 -13 11 -13 5 0 8 3 6 8 -3 4 9 7 26 8 92 3
108 5 104 12 -3 4 9 7 26 7 30 1 80 8 137 20 14 3 41 8 60 12 19 4 38 8 43 9
4 1 16 2 28 3 11 0 18 4 16 8 -3 5 9 8 26 9 42 1 157 25 197 41 8 3 21 5 28 4
6 -1 12 3 12 9 0 6 4 9 8 6 5 -3 26 0 48 6 42 13 50 15 62 17 4 1 0 6 -8 11
-9 6 -10 10 -3 10 6 0 14 -4 17 -9 3 -4 21 -3 40 3 19 6 32 15 29 20 -3 5 -2
6 4 3 12 -7 94 13 89 22 -3 4 3 7 12 8 80 6 442 188 426 214 -3 5 1 7 8 4 16
-6 134 101 130 118 -2 6 0 9 4 5 10 -10 65 54 59 69 -2 7 1 12 8 10 7 -1 11 6
11 15 -1 10 2 16 6 13 13 -8 91 125 86 146 0 3 7 14 17 24 10 9 16 24 13 32
-3 8 -2 12 2 9 7 -4 72 143 78 177 2 7 12 37 24 67 11 30 19 63 16 73 -2 9 0
15 5 12 4 -3 11 7 15 22 3 15 10 42 15 58 29 99 61 238 62 273 1 12 4 22 7 22
3 0 6 8 7 18 1 9 4 29 7 45 3 15 9 39 12 54 3 15 6 46 8 68 1 22 5 45 8 51 4
5 9 32 13 60 3 27 10 76 16 109 5 33 12 81 14 107 1 26 5 50 7 55 2 4 4 27 4
50 -1 24 3 43 8 43 5 0 3 6 -3 14 -8 9 -8 15 -1 18 5 1 11 40 12 85 2 46 5 83
8 83 3 0 6 33 8 73 2 39 4 81 6 92 2 11 -4 26 -13 33 -14 11 -14 11 2 6 14 -5
17 0 18 37 0 24 2 61 4 81 1 21 -1 36 -5 33 -4 -3 -14 3 -21 13 -12 15 -12 16
2 5 22 -18 29 -7 29 44 0 30 -4 42 -11 37 -6 -3 -3 5 6 20 14 20 14 26 4 26
-9 0 -10 3 -4 8 12 8 14 620 2 639 -4 6 -3 14 2 18 5 3 8 15 6 26 -2 12 -5 69
-6 127 -1 63 -6 113 -13 121 -9 12 -8 13 3 6 8 -5 12 -4 9 1 -3 5 -9 69 -13
142 -8 154 -8 153 -19 171 -7 10 -6 12 4 6 8 -5 11 -4 7 1 -6 11 -16 98 -33
294 -4 48 -12 82 -23 94 -9 12 -11 16 -2 11 10 -6 12 -1 7 21 -4 16 -7 46 -8
66 -1 21 -4 36 -7 34 -3 -2 -6 18 -7 46 0 31 -6 53 -15 59 -9 6 -10 9 -2 9 13
0 7 57 -8 74 -4 5 -5 14 -3 21 3 6 -2 45 -11 86 -9 41 -18 84 -19 97 -8 58
-41 192 -48 192 -4 0 -5 7 -2 15 4 8 1 21 -5 29 -6 7 -9 15 -6 17 8 9 -51 199
-60 192 -4 -5 -5 -3 -1 4 17 30 -156 463 -186 463 -5 0 -6 4 -3 10 5 8 -26 63
-46 80 -3 3 -9 13 -12 24 -6 16 -10 16 -25 5 -15 -13 -16 -12 -4 3 18 22 -5
63 -25 46 -10 -8 -12 -7 -7 6 8 20 -110 141 -128 130 -7 -4 -8 -3 -4 4 4 7
-19 27 -56 52 -63 41 -85 49 -72 28 4 -7 3 -8 -5 -4 -6 4 -9 12 -6 17 4 5 -2
12 -12 16 -10 4 -21 11 -24 16 -4 5 -18 10 -32 10 -14 1 -24 4 -21 6 8 8 -68
41 -79 35 -7 -4 -9 -3 -4 1 6 7 -40 29 -78 38 -5 1 -12 4 -15 7 -12 13 -188
70 -225 73 -11 1 -23 5 -26 10 -3 4 -20 9 -37 10 -18 1 -32 5 -32 8 0 3 -6 6
-12 6 -7 1 -42 8 -76 18 -35 9 -66 14 -69 11 -4 -3 -11 -2 -17 4 -7 5 -25 11
-41 14 -17 3 -43 9 -60 12 -16 4 -41 7 -55 8 -14 1 -27 4 -30 7 -3 4 -24 9
-48 13 -24 3 -47 8 -53 11 -5 4 -9 0 -9 -7 0 -9 -3 -10 -8 -2 -6 11 -30 15
-147 30 -50 6 -92 12 -130 18 -16 3 -55 7 -85 10 -30 3 -68 8 -85 10 -65 9
-101 10 -114 2 -10 -6 -12 -5 -7 2 5 8 -3 12 -23 12 -18 0 -34 -7 -41 -17 -10
-17 -10 -16 -8 2 3 16 -3 20 -32 21 -152 8 -243 15 -251 20 -6 3 -16 1 -24 -6
-7 -6 -16 -7 -19 -2 -5 9 -109 13 -346 16 -107 1 -134 -2 -132 -12 1 -8 -2
-11 -8 -7 -6 3 -8 10 -5 14 2 5 -58 8 -134 7 -106 -1 -142 -4 -157 -16 -18
-14 -18 -14 -5 3 12 15 11 17 -5 14 -11 -1 -24 -6 -30 -10 -6 -3 -14 -3 -18 0
-7 8 -61 10 -91 5z m235 -26 c0 -3 -4 -8 -10 -11 -5 -3 -10 -1 -10 4 0 6 5 11
10 11 6 0 10 -2 10 -4z m414 -4 c3 -5 -1 -9 -9 -9 -8 0 -12 4 -9 9 3 4 7 8 9
8 2 0 6 -4 9 -8z m181 -1 c3 -5 2 -12 -3 -15 -5 -3 -9 1 -9 9 0 17 3 19 12 6z
m-835 -21 c0 -5 -2 -10 -4 -10 -3 0 -8 5 -11 10 -3 6 -1 10 4 10 6 0 11 -4 11
-10z m800 6 c0 -3 -4 -8 -10 -11 -5 -3 -10 -1 -10 4 0 6 5 11 10 11 6 0 10 -2
10 -4z m160 -6 c0 -5 -2 -10 -4 -10 -3 0 -8 5 -11 10 -3 6 -1 10 4 10 6 0 11
-4 11 -10z m-1560 -20 c0 -5 -5 -10 -11 -10 -5 0 -7 5 -4 10 3 6 8 10 11 10 2
0 4 -4 4 -10z m244 2 c3 -5 -1 -9 -9 -9 -8 0 -12 4 -9 9 3 4 7 8 9 8 2 0 6 -4
9 -8z m1976 -36 c0 -3 -4 -8 -10 -11 -5 -3 -10 -1 -10 4 0 6 5 11 10 11 6 0
10 -2 10 -4z m153 -11 c4 -8 3 -16 -1 -19 -4 -3 -9 4 -9 15 -2 23 3 25 10 4z
m-2773 -9 c0 -3 -4 -8 -10 -11 -5 -3 -10 -1 -10 4 0 6 5 11 10 11 6 0 10 -2
10 -4z m40 -6 c0 -5 -2 -10 -4 -10 -3 0 -8 5 -11 10 -3 6 -1 10 4 10 6 0 11
-4 11 -10z m-325 -40 c3 -5 1 -10 -4 -10 -6 0 -11 5 -11 10 0 6 2 10 4 10 3 0
8 -4 11 -10z m3425 -20 c0 -5 -2 -10 -4 -10 -3 0 -8 5 -11 10 -3 6 -1 10 4 10
6 0 11 -4 11 -10z m124 -18 c3 -5 -1 -9 -9 -9 -8 0 -12 4 -9 9 3 4 7 8 9 8 2
0 6 -4 9 -8z m231 -62 c3 -5 1 -10 -4 -10 -6 0 -11 5 -11 10 0 6 2 10 4 10 3
0 8 -4 11 -10z m42 -9 c0 -11 -5 -18 -9 -15 -4 3 -5 11 -1 19 7 21 12 19 10
-4z m-4397 -11 c0 -5 -2 -10 -4 -10 -3 0 -8 5 -11 10 -3 6 -1 10 4 10 6 0 11
-4 11 -10z m4725 -140 c3 -6 -1 -7 -9 -4 -18 7 -21 14 -7 14 6 0 13 -4 16 -10z
m159 -58 c3 -5 -1 -9 -9 -9 -8 0 -12 4 -9 9 3 4 7 8 9 8 2 0 6 -4 9 -8z
m-5650 -280 c3 -5 -1 -9 -9 -9 -8 0 -12 4 -9 9 3 4 7 8 9 8 2 0 6 -4 9 -8z
m-99 -182 c3 -5 1 -10 -4 -10 -6 0 -11 5 -11 10 0 6 2 10 4 10 3 0 8 -4 11
-10z m6185 -176 c0 -8 -19 -13 -24 -6 -3 5 1 9 9 9 8 0 15 -2 15 -3z m20 -64
c0 -5 -2 -10 -4 -10 -3 0 -8 5 -11 10 -3 6 -1 10 4 10 6 0 11 -4 11 -10z
m-6296 -18 c3 -5 -1 -9 -9 -9 -8 0 -12 4 -9 9 3 4 7 8 9 8 2 0 6 -4 9 -8z
m-30 -88 c3 -8 2 -12 -4 -9 -6 3 -10 10 -10 16 0 14 7 11 14 -7z m-74 -288 c0
-3 -4 -8 -10 -11 -5 -3 -10 -1 -10 4 0 6 5 11 10 11 6 0 10 -2 10 -4z m-70
-342 c0 -8 -19 -13 -24 -6 -3 5 1 9 9 9 8 0 15 -2 15 -3z m-50 -278 c0 -3 -4
-8 -10 -11 -5 -3 -10 -1 -10 4 0 6 5 11 10 11 6 0 10 -2 10 -4z m-10 -202 c0
-8 -19 -13 -24 -6 -3 5 1 9 9 9 8 0 15 -2 15 -3z m-70 -524 c0 -5 -2 -10 -4
-10 -3 0 -8 5 -11 10 -3 6 -1 10 4 10 6 0 11 -4 11 -10z m6930 -134 c0 -2 -8
-10 -17 -17 -16 -13 -17 -12 -4 4 13 16 21 21 21 13z m-33 -71 c0 -8 -4 -12
-9 -9 -5 3 -6 10 -3 15 9 13 12 11 12 -6z m39 -397 c3 -4 -1 -5 -10 -4 -8 1
-18 5 -22 8 -3 4 1 5 10 4 8 -1 18 -5 22 -8z m-6936 -42 c0 -2 -8 -10 -17 -17
-16 -13 -17 -12 -4 4 13 16 21 21 21 13z m6940 -70 c0 -3 -4 -8 -10 -11 -5 -3
-10 -1 -10 4 0 6 5 11 10 11 6 0 10 -2 10 -4z m-15 -66 c-3 -5 -12 -10 -18
-10 -7 0 -6 4 3 10 19 12 23 12 15 0z m-6911 -138 c2 -4 -5 -9 -17 -9 -17 -2
-19 0 -7 7 18 12 18 12 24 2z m6 -278 c0 -8 -19 -13 -24 -6 -3 5 1 9 9 9 8 0
15 -2 15 -3z m6855 -103 c3 -5 2 -12 -3 -15 -5 -3 -9 1 -9 9 0 17 3 19 12 6z
m5 -181 c0 -5 -5 -10 -11 -10 -5 0 -7 5 -4 10 3 6 8 10 11 10 2 0 4 -4 4 -10z
m-6842 -125 c-3 -3 -9 2 -12 12 -6 14 -5 15 5 6 7 -7 10 -15 7 -18z m33 -132
c-12 -20 -14 -14 -5 12 4 9 9 14 11 11 3 -2 0 -13 -6 -23z m6769 -143 c0 -5
-5 -10 -11 -10 -5 0 -7 5 -4 10 3 6 8 10 11 10 2 0 4 -4 4 -10z m-6736 -78 c3
-5 -1 -9 -9 -9 -8 0 -12 4 -9 9 3 4 7 8 9 8 2 0 6 -4 9 -8z m6711 -30 c-3 -3
-11 0 -18 7 -9 10 -8 11 6 5 10 -3 15 -9 12 -12z m-6678 -144 c2 -17 0 -19 -7
-8 -5 8 -6 18 -4 22 8 12 10 10 11 -14z m6663 16 c0 -8 -19 -13 -24 -6 -3 5 1
9 9 9 8 0 15 -2 15 -3z m-23 -113 c0 -11 -5 -18 -9 -15 -4 3 -5 11 -1 19 7 21
12 19 10 -4z m-6617 -85 c0 -3 -4 -8 -10 -11 -5 -3 -10 -1 -10 4 0 6 5 11 10
11 6 0 10 -2 10 -4z m6575 -115 c3 -5 2 -12 -3 -15 -5 -3 -9 1 -9 9 0 17 3 19
12 6z m15 -87 c0 -8 -19 -13 -24 -6 -3 5 1 9 9 9 8 0 15 -2 15 -3z m-50 -104
c0 -5 -2 -10 -4 -10 -3 0 -8 5 -11 10 -3 6 -1 10 4 10 6 0 11 -4 11 -10z
m-6460 -16 c0 -8 -19 -13 -24 -6 -3 5 1 9 9 9 8 0 15 -2 15 -3z m6465 -24 c-3
-5 -12 -10 -18 -10 -7 0 -6 4 3 10 19 12 23 12 15 0z m-6434 -73 c-10 -9 -11
-8 -5 6 3 10 9 15 12 12 3 -3 0 -11 -7 -18z m25 -83 c1 -9 0 -13 -4 -10 -3 4
-7 14 -8 22 -1 9 0 13 4 10 3 -4 7 -14 8 -22z m6354 0 c0 -8 -19 -13 -24 -6
-3 5 1 9 9 9 8 0 15 -2 15 -3z m-30 -44 c0 -5 -2 -10 -4 -10 -3 0 -8 5 -11 10
-3 6 -1 10 4 10 6 0 11 -4 11 -10z m-65 -169 c3 -5 2 -12 -3 -15 -5 -3 -9 1
-9 9 0 17 3 19 12 6z m-6135 -67 c0 -8 -19 -13 -24 -6 -3 5 1 9 9 9 8 0 15 -2
15 -3z m6085 -44 c-3 -5 -12 -10 -18 -10 -7 0 -6 4 3 10 19 12 23 12 15 0z
m-25 -54 c0 -3 -4 -8 -10 -11 -5 -3 -10 -1 -10 4 0 6 5 11 10 11 6 0 10 -2 10
-4z m-63 -81 c0 -8 -4 -12 -9 -9 -5 3 -6 10 -3 15 9 13 12 11 12 -6z m-5920
-10 c0 -8 -4 -12 -9 -9 -5 3 -6 10 -3 15 9 13 12 11 12 -6z m5658 -223 c-3 -3
-11 0 -18 7 -9 10 -8 11 6 5 10 -3 15 -9 12 -12z m-5275 -86 c0 -3 -4 -8 -10
-11 -5 -3 -10 -1 -10 4 0 6 5 11 10 11 6 0 10 -2 10 -4z m94 -64 c3 -5 -1 -9
-9 -9 -8 0 -12 4 -9 9 3 4 7 8 9 8 2 0 6 -4 9 -8z m4880 -24 c-3 -4 -11 -5
-19 -1 -21 7 -19 12 4 10 11 0 18 -5 15 -9z m-4597 -83 c0 -8 -4 -12 -9 -9 -5
3 -6 10 -3 15 9 13 12 11 12 -6z m84 -18 c-6 -8 -7 -18 -3 -22 4 -5 1 -5 -6
-1 -10 6 -10 11 -1 22 6 8 14 14 16 14 3 0 0 -6 -6 -13z m89 -13 c0 -8 -19
-13 -24 -6 -3 5 1 9 9 9 8 0 15 -2 15 -3z m105 -32 c-3 -3 -11 0 -18 7 -9 10
-8 11 6 5 10 -3 15 -9 12 -12z m3820 0 c-3 -3 -11 0 -18 7 -9 10 -8 11 6 5 10
-3 15 -9 12 -12z m-135 -26 c0 -3 -4 -8 -10 -11 -5 -3 -10 -1 -10 4 0 6 5 11
10 11 6 0 10 -2 10 -4z m-142 -31 c-3 -3 -9 2 -12 12 -6 14 -5 15 5 6 7 -7 10
-15 7 -18z m-224 -33 c3 -5 -1 -9 -9 -9 -8 0 -12 4 -9 9 3 4 7 8 9 8 2 0 6 -4
9 -8z m-397 -54 c2 -17 0 -19 -7 -8 -5 8 -6 18 -4 22 8 12 10 10 11 -14z
m-2157 -8 c0 -5 -2 -10 -4 -10 -3 0 -8 5 -11 10 -3 6 -1 10 4 10 6 0 11 -4 11
-10z m110 4 c0 -8 -19 -13 -24 -6 -3 5 1 9 9 9 8 0 15 -2 15 -3z m245 -4 c3
-5 1 -10 -4 -10 -6 0 -11 5 -11 10 0 6 2 10 4 10 3 0 8 -4 11 -10z m1598 -5
c4 -8 3 -16 -1 -19 -4 -3 -9 4 -9 15 -2 23 3 25 10 4z m-1213 -9 c0 -3 -4 -8
-10 -11 -5 -3 -10 -1 -10 4 0 6 5 11 10 11 6 0 10 -2 10 -4z m824 -4 c3 -5 -1
-9 -9 -9 -8 0 -12 4 -9 9 3 4 7 8 9 8 2 0 6 -4 9 -8z m280 0 c3 -5 -1 -9 -9
-9 -8 0 -12 4 -9 9 3 4 7 8 9 8 2 0 6 -4 9 -8z m150 0 c3 -5 -1 -9 -9 -9 -8 0
-12 4 -9 9 3 4 7 8 9 8 2 0 6 -4 9 -8z m-694 -22 c0 -5 -5 -10 -11 -10 -5 0
-7 5 -4 10 3 6 8 10 11 10 2 0 4 -4 4 -10z m320 6 c0 -3 -4 -8 -10 -11 -5 -3
-10 -1 -10 4 0 6 5 11 10 11 6 0 10 -2 10 -4z m145 -6 c3 -6 -1 -7 -9 -4 -18
7 -21 14 -7 14 6 0 13 -4 16 -10z m-680 -20 c-3 -5 -12 -10 -18 -10 -7 0 -6 4
3 10 19 12 23 12 15 0z"/>
</g>
</svg>
